#!OML:ASF H:\MichaelJackson\Top Level 1\Subject 1\Session 1\male.ASF
:FULLY-SPECIFIED
:DEGREES
234
root 4.58265 16.4799 -18.1554 11.6566 13.4708 -0.199313
lowerback -5.527 -1.44295 -0.132149
upperback -3.7464 -1.90751 -1.65427
thorax -0.808551 -0.96689 -1.71375
lowerneck -5.65001 -4.4759 3.25359
upperneck 2.01414 -6.31732 3.31796
head 1.58394 -3.04757 0.298451
rclavicle -7.97623e-015 3.97569e-015
rhumerus -6.25816 -15.5814 -15.555
rradius 72.0207
rwrist -21.6692
rhand -42.0305 -55.1011
rfingers 7.12502
rthumb -14.9245 -444.543
lclavicle -7.97623e-015 3.97569e-015
lhumerus -56.9376 -29.5328 112.73
lradius 55.5466
lwrist 13.7975
lhand 10.2887 15.718
lfingers 7.12502
lthumb 35.4001 42.1796
rfemur -31.5842 -8.08797 14.6177
rtibia 47.4146
rfoot -21.2047 -0.540151
rtoes -1.03984
lfemur -9.18966 -13.8244 -6.73175
ltibia 21.8087
lfoot -29.8225 -7.62945
ltoes 39.9332
235
root 4.54255 16.4748 -18.1312 11.6044 13.2733 -0.307133
lowerback -5.37902 -1.44733 -0.207555
upperback -3.72416 -1.91204 -1.58502
thorax -0.862918 -0.967255 -1.59661
lowerneck -5.65866 -4.40965 3.14599
upperneck 1.97744 -6.22344 3.40084
head 1.58021 -3.00063 0.344689
rclavicle 1.92324e-014 8.74653e-015
rhumerus -6.77834 -14.8224 -16.3791
rradius 73.1216
rwrist -21.5859
rhand -41.4447 -54.5355
rfingers 7.12502
rthumb -14.3602 -444.019
lclavicle 1.92324e-014 8.74653e-015
lhumerus -56.377 -28.3604 111.655
lradius 54.9812
lwrist 13.405
lhand 8.96933 14.969
lfingers 7.12502
lthumb 34.1481 41.7197
rfemur -31.7194 -8.95404 15.365
rtibia 47.6252
rfoot -21.1418 -1.22886
rtoes -0.67658
lfemur -9.21326 -14.2568 -6.61941
ltibia 22.2716
lfoot -29.89 -6.60361
ltoes 39.4347
236
root 4.50135 16.4707 -18.107 11.5459 13.0553 -0.435738
lowerback -5.21543 -1.44322 -0.268839
upperback -3.70342 -1.90617 -1.4957
thorax -0.927037 -0.962447 -1.46592
lowerneck -5.6817 -4.33686 3.00873
upperneck 1.9456 -6.11903 3.46904
head 1.58088 -2.94873 0.391185
rclavicle 6.28657e-015 -7.95139e-016
rhumerus -7.28916 -14.0924 -17.2281
rradius 74.2381
rwrist -21.4347
rhand -40.8971 -53.8183
rfingers 7.12502
rthumb -13.8325 -443.338
lclavicle 6.28657e-015 -7.95139e-016
lhumerus -55.7845 -27.0737 110.549
lradius 54.3407
lwrist 12.9772
lhand 7.34389 14.1966
lfingers 7.12502
lthumb 32.603 41.2797
rfemur -31.819 -9.6571 16.0358
rtibia 47.7595
rfoot -21.0954 -1.65506
rtoes -0.324693
lfemur -9.30732 -14.5478 -6.49534
ltibia 22.8816
lfoot -29.9191 -5.61912
ltoes 38.6755
237
root 4.45933 16.4671 -18.0831 11.4807 12.818 -0.590033
lowerback -5.03914 -1.42949 -0.309302
upperback -3.68119 -1.88847 -1.38424
thorax -0.996411 -0.951822 -1.32343
lowerneck -5.71754 -4.25967 2.84255
upperneck 1.91301 -6.0065 3.51936
head 1.58367 -2.8933 0.43693
rclavicle 1.40392e-014 9.54166e-015
rhumerus -7.79813 -13.3651 -18.0889
rradius 75.3677
rwrist -21.2334
rhand -40.3973 -52.9937
rfingers 7.12502
rthumb -13.3508 -442.546
lclavicle 1.40392e-014 9.54166e-015
lhumerus -55.1799 -25.6944 109.433
lradius 53.6499
lwrist 12.5382
lhand 5.38153 13.4301
lfingers 7.12502
lthumb 30.7338 40.882
rfemur -31.8838 -10.1882 16.6232
rtibia 47.8363
rfoot -21.0868 -1.76066
rtoes 0.251789
lfemur -9.48485 -14.6744 -6.35531
ltibia 23.6631
lfoot -29.908 -4.67802
ltoes 37.6205
238
root 4.41712 16.4634 -18.0601 11.4104 12.5692 -0.76618
lowerback -4.86077 -1.40505 -0.322892
upperback -3.6497 -1.85729 -1.25586
thorax -1.0576 -0.934702 -1.17838
lowerneck -5.75703 -4.18068 2.65511
upperneck 1.86001 -5.88852 3.55183
head 1.58032 -2.83615 0.481098
rclavicle 2.48481e-014 2.38542e-015
rhumerus -8.31864 -12.6238 -18.9499
rradius 76.5071
rwrist -21.0045
rhand -39.9674 -52.1433
rfingers 7.12502
rthumb -12.9363 -441.722
lclavicle 2.48481e-014 2.38542e-015
lhumerus -54.5742 -24.262 108.322
lradius 52.9216
lwrist 12.1107
lhand 3.03674 12.6917
lfingers 7.12502
lthumb 28.4957 40.5411
rfemur -31.9156 -10.577 17.1273
rtibia 47.868
rfoot -21.1346 -1.56939
rtoes 0.975312
lfemur -9.7542 -14.6332 -6.20425
ltibia 24.6285
lfoot -29.8262 -3.76331
ltoes 36.1892
239
root 4.37517 16.4597 -18.038 11.3413 12.3304 -0.965183
lowerback -4.69001 -1.3736 -0.299875
upperback -3.60989 -1.81763 -1.1128
thorax -1.10674 -0.913821 -1.03899
lowerneck -5.79303 -4.10341 2.45289
upperneck 1.78472 -5.76985 3.56495
head 1.56874 -2.77971 0.522179
rclavicle -3.40419e-015 1.59028e-015
rhumerus -8.86468 -11.8429 -19.7969
rradius 77.6538
rwrist -20.7576
rhand -39.589 -51.3163
rfingers 7.12502
rthumb -12.5715 -440.918
lclavicle -3.40419e-015 1.59028e-015
lhumerus -53.9912 -22.8178 107.244
lradius 52.1976
lwrist 11.7412
lhand 0.381298 12.1579
lfingers 7.12502
lthumb 25.9555 40.4057
rfemur -31.9226 -10.8774 17.5714
rtibia 47.8606
rfoot -21.2268 -1.11617
rtoes 1.97646
lfemur -10.1281 -14.4413 -6.03617
ltibia 25.7827
lfoot -29.6675 -2.87798
ltoes 34.402
240
root 4.33352 16.4562 -18.0163 11.2598 12.1321 -1.18967
lowerback -4.51583 -1.34494 -0.230757
upperback -3.5591 -1.78276 -0.958608
thorax -1.14785 -0.896069 -0.914451
lowerneck -5.82226 -4.02822 2.23749
upperneck 1.69017 -5.65146 3.56669
head 1.54955 -2.72418 0.562344
rclavicle -1.48095e-014 -1.43125e-014
rhumerus -9.44139 -11.0061 -20.6334
rradius 78.8046
rwrist -20.4829
rhand -39.2328 -50.563
rfingers 7.12502
rthumb -12.2281 -440.186
lclavicle -1.48095e-014 -1.43125e-014
lhumerus -53.4446 -21.3913 106.208
lradius 51.4873
lwrist 11.4453
lhand -2.58665 11.6888
lfingers 7.12502
lthumb 23.1106 40.3227
rfemur -31.8849 -11.1471 17.9882
rtibia 47.8115
rfoot -21.3484 -0.467982
rtoes 3.29952
lfemur -10.6011 -14.1161 -5.84355
ltibia 27.1277
lfoot -29.4228 -2.03569
ltoes 32.3696
241
root 4.29251 16.4532 -17.9951 11.1684 11.9927 -1.44175
lowerback -4.35293 -1.30611 -0.106952
upperback -3.49607 -1.73538 -0.808905
thorax -1.17189 -0.873094 -0.825399
lowerneck -5.82898 -3.97186 2.0473
upperneck 1.57473 -5.55786 3.5551
head 1.51842 -2.68168 0.594192
rclavicle -6.21202e-016 -7.15625e-015
rhumerus -10.1076 -10.1321 -21.4419
rradius 79.9606
rwrist -20.1847
rhand -38.8713 -49.9054
rfingers 7.12502
rthumb -11.8795 -439.548
lclavicle -6.21202e-016 -7.15625e-015
lhumerus -52.9587 -20.0765 105.246
lradius 50.7882
lwrist 11.203
lhand -5.83296 11.2959
lfingers 7.12502
lthumb 19.9929 40.2874
rfemur -31.8057 -11.4269 18.4098
rtibia 47.7157
rfoot -21.4691 0.300041
rtoes 4.98094
lfemur -11.1824 -13.6865 -5.61866
ltibia 28.6611
lfoot -29.0844 -1.24984
ltoes 30.1512
242
root 4.25202 16.4516 -17.9743 11.0704 11.9312 -1.71877
lowerback -4.19964 -1.26721 0.0638273
upperback -3.42317 -1.6886 -0.658566
thorax -1.18192 -0.851224 -0.762604
lowerneck -5.8247 -3.93215 1.8759
upperneck 1.45754 -5.48711 3.53136
head 1.48388 -2.65068 0.618689
rclavicle -4.14963e-015 -5.1684e-015
rhumerus -10.8438 -9.22233 -22.2293
rradius 81.1205
rwrist -19.87
rhand -38.4699 -49.3299
rfingers 7.12502
rthumb -11.4925 -438.995
lclavicle -4.14963e-015 -5.1684e-015
lhumerus -52.5305 -18.8641 104.351
lradius 50.1175
lwrist 10.9873
lhand -9.22016 10.9381
lfingers 7.12502
lthumb 16.7345 40.2369
rfemur -31.6818 -11.7326 18.8586
rtibia 47.5601
rfoot -21.5587 1.07766
rtoes 6.87841
lfemur -11.8929 -13.1833 -5.35833
ltibia 30.389
lfoot -28.6126 -0.501996
ltoes 27.7308
243
root 4.21176 16.4517 -17.9537 10.9647 11.9513 -2.01458
lowerback -4.04263 -1.22546 0.279828
upperback -3.35404 -1.63873 -0.521981
thorax -1.19965 -0.828753 -0.739177
lowerneck -5.80203 -3.91453 1.73852
upperneck 1.36642 -5.44872 3.50312
head 1.45357 -2.6352 0.635254
rclavicle 1.61513e-014 1.78906e-014
rhumerus -11.6831 -8.26439 -23.0073
rradius 82.2875
rwrist -19.5307
rhand -37.9899 -48.8188
rfingers 7.12502
rthumb -11.0295 -438.509
lclavicle 1.61513e-014 1.78906e-014
lhumerus -52.1858 -17.7665 103.508
lradius 49.4869
lwrist 10.7518
lhand -12.6198 10.6202
lfingers 7.12502
lthumb 13.4597 40.1653
rfemur -31.5056 -12.0375 19.3373
rtibia 47.3343
rfoot -21.5931 1.77696
rtoes 8.93843
lfemur -12.7388 -12.6373 -5.0662
ltibia 32.3193
lfoot -27.991 0.207014
ltoes 25.1489
244
root 4.17125 16.4551 -17.9334 10.8525 12.0537 -2.32064
lowerback -3.87528 -1.18679 0.526761
upperback -3.28759 -1.59305 -0.398154
thorax -1.22721 -0.80905 -0.746172
lowerneck -5.79298 -3.91517 1.62471
upperneck 1.32997 -5.43909 3.4772
head 1.44283 -2.63252 0.646913
rclavicle 1.81391e-014 -1.11319e-014
rhumerus -12.6029 -7.26356 -23.79
rradius 83.4585
rwrist -19.1867
rhand -37.4327 -48.3438
rfingers 7.12502
rthumb -10.4921 -438.062
lclavicle 1.81391e-014 -1.11319e-014
lhumerus -51.9094 -16.7519 102.688
lradius 48.905
lwrist 10.4386
lhand -15.8642 10.3099
lfingers 7.12502
lthumb 10.3311 40.0361
rfemur -31.2679 -12.2917 19.8352
rtibia 47.0246
rfoot -21.5691 2.31039
rtoes 11.013
lfemur -13.7385 -12.0736 -4.74988
ltibia 34.4581
lfoot -27.1554 0.899657
ltoes 22.4454
245
root 4.1302 16.4624 -17.914 10.746 12.2301 -2.61948
lowerback -3.69419 -1.14639 0.783727
upperback -3.23446 -1.54437 -0.296803
thorax -1.27695 -0.788345 -0.781444
lowerneck -5.78538 -3.94003 1.54551
upperneck 1.3506 -5.4665 3.45245
head 1.45002 -2.64691 0.651467
rclavicle -1.11816e-014 2.78299e-015
rhumerus -13.6285 -6.21352 -24.5809
rradius 84.6362
rwrist -18.8432
rhand -36.802 -47.8875
rfingers 7.12502
rthumb -9.8836 -437.636
lclavicle -1.11816e-014 2.78299e-015
lhumerus -51.7183 -15.8168 101.871
lradius 48.3861
lwrist 10.013
lhand -18.8305 10.0125
lfingers 7.12502
lthumb 7.46873 39.8607
rfemur -30.9764 -12.439 20.3261
rtibia 46.6247
rfoot -21.4852 2.63291
rtoes 13.06
lfemur -14.9108 -11.5063 -4.42592
ltibia 36.7993
lfoot -26.1017 1.55962
ltoes 19.5563
